HIERARCHY
ROOT Hips
{
  OFFSET 373.837 88.1643 177.628
  CHANNELS 6 Xposition Yposition Zposition Zrotation Xrotation Yrotation
  JOINT RightUpLeg
  {
    OFFSET -9.27602 -1.55371 -0.0617006
    CHANNELS 3 Zrotation Xrotation Yrotation
    JOINT RightLeg
    {
      OFFSET 0.0569767 -41.8713 0.0644562
      CHANNELS 3 Zrotation Xrotation Yrotation
      JOINT RightFoot
      {
        OFFSET -0.463049 -43.0064 -0.0336586
        CHANNELS 3 Zrotation Xrotation Yrotation
        End Site
        {
          OFFSET 0 -7.69 17.5
        }
      }
    }
  }
  JOINT LeftUpLeg
  {
    OFFSET 9.29312 -1.63815 0.0236341
    CHANNELS 3 Zrotation Xrotation Yrotation
    JOINT LeftLeg
    {
      OFFSET 0.0670365 -41.8776 -0.0578197
      CHANNELS 3 Zrotation Xrotation Yrotation
      JOINT LeftFoot
      {
        OFFSET 0.591956 -40.8352 0.210268
        CHANNELS 3 Zrotation Xrotation Yrotation
        End Site
        {
          OFFSET 0 -7.69 17.5
        }
      }
    }
  }
  JOINT Spine
  {
    OFFSET 0.0229142 14.2949 0.0394214
    CHANNELS 3 Zrotation Xrotation Yrotation
    JOINT Spine1
    {
      OFFSET 0.0328969 9.71943 0.0194292
      CHANNELS 3 Zrotation Xrotation Yrotation
      JOINT Spine2
      {
        OFFSET 0.0292955 10.1244 -0.00440821
        CHANNELS 3 Zrotation Xrotation Yrotation
        JOINT Spine3
        {
          OFFSET 0.024556 9.71184 0.0101567
          CHANNELS 3 Zrotation Xrotation Yrotation
          JOINT Neck
          {
            OFFSET 0.152325 10.3757 0.0664015
            CHANNELS 3 Zrotation Xrotation Yrotation
            JOINT Head
            {
              OFFSET 0.134553 9.4858 0.0499874
              CHANNELS 3 Zrotation Xrotation Yrotation
              End Site
              {
                OFFSET 0 15.95 0
              }
            }
          }
          JOINT RightShoulder
          {
            OFFSET -3.19519 6.89024 -0.0330231
            CHANNELS 3 Zrotation Xrotation Yrotation
            JOINT RightArm
            {
              OFFSET -12.6524 0.0927817 0.0603028
              CHANNELS 3 Zrotation Xrotation Yrotation
              JOINT RightForeArm
              {
                OFFSET -26.4983 -0.141459 0.202928
                CHANNELS 3 Zrotation Xrotation Yrotation
                JOINT RightHand
                {
                  OFFSET -25.9883 -0.0240172 0.0141731
                  CHANNELS 3 Zrotation Xrotation Yrotation
                  JOINT RightHandThumb1
                  {
                    OFFSET -2.48905 0.190105 3.12053
                    CHANNELS 3 Zrotation Xrotation Yrotation
                    JOINT RightHandThumb2
                    {
                      OFFSET -3.68274 0 0
                      CHANNELS 3 Zrotation Xrotation Yrotation
                      JOINT RightHandThumb3
                      {
                        OFFSET -2.55832 0 0
                        CHANNELS 3 Zrotation Xrotation Yrotation
                        End Site
                        {
                          OFFSET -2.194 0 0
                        }
                      }
                    }
                  }
                  JOINT RightInHandIndex
                  {
                    OFFSET -3.22368 0.508421 1.97842
                    CHANNELS 3 Zrotation Xrotation Yrotation
                    JOINT RightHandIndex1
                    {
                      OFFSET -5.21684 -0.091368 0.999158
                      CHANNELS 3 Zrotation Xrotation Yrotation
                      JOINT RightHandIndex2
                      {
                        OFFSET -3.61937 0 0
                        CHANNELS 3 Zrotation Xrotation Yrotation
                        JOINT RightHandIndex3
                        {
                          OFFSET -2.0521 0 0
                          CHANNELS 3 Zrotation Xrotation Yrotation
                          End Site
                          {
                            OFFSET -1.805 0 0
                          }
                        }
                      }
                    }
                  }
                  JOINT RightInHandMiddle
                  {
                    OFFSET -3.38211 0.517263 0.756737
                    CHANNELS 3 Zrotation Xrotation Yrotation
                    JOINT RightHandMiddle1
                    {
                      OFFSET -5.17411 -0.084 0.313895
                      CHANNELS 3 Zrotation Xrotation Yrotation
                      JOINT RightHandMiddle2
                      {
                        OFFSET -3.94947 0 0
                        CHANNELS 3 Zrotation Xrotation Yrotation
                        JOINT RightHandMiddle3
                        {
                          OFFSET -2.47579 0 0
                          CHANNELS 3 Zrotation Xrotation Yrotation
                          End Site
                          {
                            OFFSET -1.975 0 0
                          }
                        }
                      }
                    }
                  }
                  JOINT RightInHandRing
                  {
                    OFFSET -3.36516 0.537895 -0.128947
                    CHANNELS 3 Zrotation Xrotation Yrotation
                    JOINT RightHandRing1
                    {
                      OFFSET -4.63474 -0.022105 -0.478947
                      CHANNELS 3 Zrotation Xrotation Yrotation
                      JOINT RightHandRing2
                      {
                        OFFSET -3.44238 0 0
                        CHANNELS 3 Zrotation Xrotation Yrotation
                        JOINT RightHandRing3
                        {
                          OFFSET -2.3881 0 0
                          CHANNELS 3 Zrotation Xrotation Yrotation
                          End Site
                          {
                            OFFSET -1.857 0 0
                          }
                        }
                      }
                    }
                  }
                  JOINT RightInHandPinky
                  {
                    OFFSET -3.16105 0.469368 -1.20179
                    CHANNELS 3 Zrotation Xrotation Yrotation
                    JOINT RightHandPinky1
                    {
                      OFFSET -4.14105 -0.022105 -1.09053
                      CHANNELS 3 Zrotation Xrotation Yrotation
                      JOINT RightHandPinky2
                      {
                        OFFSET -2.75653 0 0
                        CHANNELS 3 Zrotation Xrotation Yrotation
                        JOINT RightHandPinky3
                        {
                          OFFSET -1.74189 0 0
                          CHANNELS 3 Zrotation Xrotation Yrotation
                          End Site
                          {
                            OFFSET -1.645 0 0
                          }
                        }
                      }
                    }
                  }
                }
              }
            }
          }
          JOINT LeftShoulder
          {
            OFFSET 3.28609 6.87948 -0.0751467
            CHANNELS 3 Zrotation Xrotation Yrotation
            JOINT LeftArm
            {
              OFFSET 12.831 -0.0663252 -0.1321
              CHANNELS 3 Zrotation Xrotation Yrotation
              JOINT LeftForeArm
              {
                OFFSET 26.5106 -0.082189 -0.0903645
                CHANNELS 3 Zrotation Xrotation Yrotation
                JOINT LeftHand
                {
                  OFFSET 25.9965 -0.0307163 -0.0535747
                  CHANNELS 3 Zrotation Xrotation Yrotation
                  JOINT LeftHandThumb1
                  {
                    OFFSET 2.48905 0.190105 3.12053
                    CHANNELS 3 Zrotation Xrotation Yrotation
                    JOINT LeftHandThumb2
                    {
                      OFFSET 3.68274 0 0
                      CHANNELS 3 Zrotation Xrotation Yrotation
                      JOINT LeftHandThumb3
                      {
                        OFFSET 2.55832 0 0
                        CHANNELS 3 Zrotation Xrotation Yrotation
                        End Site
                        {
                          OFFSET 2.194 0 0
                        }
                      }
                    }
                  }
                  JOINT LeftInHandIndex
                  {
                    OFFSET 3.22368 0.508421 1.97842
                    CHANNELS 3 Zrotation Xrotation Yrotation
                    JOINT LeftHandIndex1
                    {
                      OFFSET 5.21684 -0.091368 0.999158
                      CHANNELS 3 Zrotation Xrotation Yrotation
                      JOINT LeftHandIndex2
                      {
                        OFFSET 3.61937 0 0
                        CHANNELS 3 Zrotation Xrotation Yrotation
                        JOINT LeftHandIndex3
                        {
                          OFFSET 2.0521 0 0
                          CHANNELS 3 Zrotation Xrotation Yrotation
                          End Site
                          {
                            OFFSET 1.805 0 0
                          }
                        }
                      }
                    }
                  }
                  JOINT LeftInHandMiddle
                  {
                    OFFSET 3.38211 0.517263 0.756737
                    CHANNELS 3 Zrotation Xrotation Yrotation
                    JOINT LeftHandMiddle1
                    {
                      OFFSET 5.17411 -0.084 0.313895
                      CHANNELS 3 Zrotation Xrotation Yrotation
                      JOINT LeftHandMiddle2
                      {
                        OFFSET 3.94947 0 0
                        CHANNELS 3 Zrotation Xrotation Yrotation
                        JOINT LeftHandMiddle3
                        {
                          OFFSET 2.47579 0 0
                          CHANNELS 3 Zrotation Xrotation Yrotation
                          End Site
                          {
                            OFFSET 1.975 0 0
                          }
                        }
                      }
                    }
                  }
                  JOINT LeftInHandRing
                  {
                    OFFSET 3.36516 0.537895 -0.128947
                    CHANNELS 3 Zrotation Xrotation Yrotation
                    JOINT LeftHandRing1
                    {
                      OFFSET 4.63474 -0.022105 -0.478947
                      CHANNELS 3 Zrotation Xrotation Yrotation
                      JOINT LeftHandRing2
                      {
                        OFFSET 3.44238 0 0
                        CHANNELS 3 Zrotation Xrotation Yrotation
                        JOINT LeftHandRing3
                        {
                          OFFSET 2.3881 0 0
                          CHANNELS 3 Zrotation Xrotation Yrotation
                          End Site
                          {
                            OFFSET 1.857 0 0
                          }
                        }
                      }
                    }
                  }
                  JOINT LeftInHandPinky
                  {
                    OFFSET 3.16105 0.469368 -1.20179
                    CHANNELS 3 Zrotation Xrotation Yrotation
                    JOINT LeftHandPinky1
                    {
                      OFFSET 4.14105 -0.022105 -1.09053
                      CHANNELS 3 Zrotation Xrotation Yrotation
                      JOINT LeftHandPinky2
                      {
                        OFFSET 2.75653 0 0
                        CHANNELS 3 Zrotation Xrotation Yrotation
                        JOINT LeftHandPinky3
                        {
                          OFFSET 1.74189 0 0
                          CHANNELS 3 Zrotation Xrotation Yrotation
                          End Site
                          {
                            OFFSET 1.645 0 0
                          }
                        }
                      }
                    }
                  }
                }
              }
            }
          }
        }
      }
    }
  }
}
MOTION
Frames: 3
Frame Time: 0.00833333
2.999994577777103473e+02 -2.635879581244400961e-03 1.348774761572326970e-03 -1.229820747650091969e-03 1.678031594055263065e-03 4.317767519772183760e-03 -9.258022171343600198e-03 -1.258493100842575894e-03 -1.284808375809853333e-02 6.735262717327444512e-03 -3.650867740695851356e-03 3.805358412282613002e-04 -3.691919093359517789e-02 -2.945311867907570184e-04 1.935216845506332328e-02 -5.239534138694304857e-03 -1.267491929121740760e-02 6.916450988922688949e-04 9.121590619921222595e-03 1.202346161357003076e-02 -1.695241650591311836e-02 1.570373685880171663e-02 -8.177292724369039645e-03 1.073279270406641769e-02 -7.626527616378836992e-03 -6.122348061146836405e-03 -8.978779738073840860e-03 -1.744115074581035650e-03 -1.878253609528068293e-03 -1.907130426165351859e-03 -2.840598498765581521e-03 -3.205831355552146451e-03 -3.179072142224418675e-03 2.990228636871651601e-04 3.371222091475531467e-04 1.778534529594890420e-04 -3.614689856212757735e-04 1.168326572547772821e-02 1.054511578871221954e-02 1.073443882919469100e-02 -1.018445110119609032e-02 1.219580175417682606e-02 -7.910488888384652542e-03 5.125229155662185641e-03 3.110331313796594818e-02 5.867744130979338224e-02 1.704722347255056142e-02 1.720250600280417291e-02 -5.717723382788688496e-02 -4.640444680180300617e-03 3.410030378566696052e-02 -5.565569166925186245e-02 -9.233931189927702121e-02 -6.031188732364396732e-02 0.000000000000000000e+00 0.000000000000000000e+00 0.000000000000000000e+00 5.208078158015160833e-16 4.642897804458637272e-16 0.000000000000000000e+00 -1.428275377552751254e-17 7.525853842376418732e-17 0.000000000000000000e+00 -1.176063948470647544e-16 1.817535192862652793e-16 1.475185777693269072e-17 0.000000000000000000e+00 0.000000000000000000e+00 0.000000000000000000e+00 0.000000000000000000e+00 5.699032440679339786e-16 4.234695818917006120e-16 0.000000000000000000e+00 4.397643319067103149e-16 -6.667648817114163004e-16 -1.176063948470647544e-16 1.817535192862652793e-16 1.475185777693269072e-17 0.000000000000000000e+00 2.996762084508708104e-16 1.758028094904088630e-17 0.000000000000000000e+00 1.243769348608951979e-16 -9.140033253537154229e-17 0.000000000000000000e+00 -1.245932737756316107e-15 -7.732161386529015515e-16 -1.176063948470647544e-16 1.817535192862652793e-16 1.475185777693269072e-17 0.000000000000000000e+00 0.000000000000000000e+00 0.000000000000000000e+00 0.000000000000000000e+00 -1.974141384966947729e-16 3.717509312019341686e-16 0.000000000000000000e+00 5.213226006444517163e-16 -8.852637190796340914e-17 -1.176063948470647544e-16 1.817535192862652793e-16 1.475185777693269072e-17 0.000000000000000000e+00 0.000000000000000000e+00 0.000000000000000000e+00 0.000000000000000000e+00 -1.069245736314244781e-15 3.945680170331593955e-16 0.000000000000000000e+00 -1.237672563029651847e-15 -1.247480570762517689e-15 1.469707213828384124e-02 2.710317542769045268e-02 1.936817788548794370e-02 1.724742814678800404e-02 -6.592910234676158283e-03 -1.116367385819774100e-02 5.434172673157255766e-03 5.338997967142236623e-02 1.038272515451372086e-01 1.322096756304495455e-02 -2.221112022348513144e-03 -1.263868925789062292e-01 0.000000000000000000e+00 0.000000000000000000e+00 0.000000000000000000e+00 9.347881453699478477e-16 4.458403739167985195e-16 0.000000000000000000e+00 5.249551937428174533e-16 3.615027455146767727e-16 0.000000000000000000e+00 1.615498785830444962e-16 -5.916386709313400842e-17 -5.088487188430741697e-17 0.000000000000000000e+00 0.000000000000000000e+00 0.000000000000000000e+00 0.000000000000000000e+00 -6.321069734734023496e-17 3.299492966525984621e-16 0.000000000000000000e+00 2.299626157988641703e-16 -3.914516134951779951e-16 1.615498785830444962e-16 -5.916386709313400842e-17 -5.088487188430741697e-17 0.000000000000000000e+00 -1.211696886732906100e-16 9.451816344886082066e-17 0.000000000000000000e+00 5.334767708619336964e-18 2.973480364219154079e-17 0.000000000000000000e+00 -2.052353464459658509e-16 -7.498957212091657972e-17 1.615498785830444962e-16 -5.916386709313400842e-17 -5.088487188430741697e-17 0.000000000000000000e+00 0.000000000000000000e+00 0.000000000000000000e+00 0.000000000000000000e+00 4.661591542705776637e-17 1.078949533778283888e-16 0.000000000000000000e+00 3.311025346963131376e-16 1.851003297307056702e-16 1.615498785830444962e-16 -5.916386709313400842e-17 -5.088487188430741697e-17 0.000000000000000000e+00 0.000000000000000000e+00 0.000000000000000000e+00 0.000000000000000000e+00 -2.601403297673103028e-16 -6.232022344994612885e-16 0.000000000000000000e+00 5.414418443938299535e-16 -1.359707372198384249e-16
3.000003048118835522e+02 -3.780076856794296804e-03 2.618369565329038088e-03 2.827540517416919121e-03 1.900681802329649427e-04 1.354794245360516590e-02 -3.875158477370178618e-03 -1.011633187246650453e-02 -1.233210830382113106e-02 2.039828045767858727e-03 -6.381331112681890363e-04 -6.645802042395058083e-03 -6.903547524992131694e-03 1.242963857644036052e-02 1.342689088707975029e-02 6.489309275178407367e-03 -1.346435245500028285e-02 -1.683267039487137094e-03 -1.503810890603877928e-03 1.489168981515559195e-02 -2.418370298186504549e-02 8.347339593056451665e-03 -1.828730023895406079e-02 7.831153642517119789e-03 1.344425141149489236e-03 -4.836702248613379898e-03 -1.125812919826645921e-02 5.704306440073707860e-04 -1.169504853026259901e-03 -2.654433128997578124e-03 8.938427916640365699e-04 -1.906649084406415728e-03 -4.552595977239785180e-03 6.425164234207754238e-04 1.824618006516355454e-03 2.293572880793936933e-06 -6.057499090170539481e-03 2.409475947562153900e-02 -1.033974811445885142e-02 6.826263243783743141e-03 1.603923500706231492e-02 2.374643347206108115e-03 -2.060880706583456679e-02 -3.756982029751437715e-03 3.541168303708501497e-02 1.250333402068125044e-01 3.335623815336948017e-02 6.109390455126382374e-02 -1.164108180615503196e-01 -8.409652568612016946e-03 6.886406219833814124e-02 -5.212450251653048122e-02 -5.380109365443186409e-02 -6.148844143678857538e-02 0.000000000000000000e+00 0.000000000000000000e+00 0.000000000000000000e+00 2.484823623908164593e-15 8.343995058939445737e-16 0.000000000000000000e+00 8.754989324368398734e-16 9.779913330382069581e-16 0.000000000000000000e+00 -3.465943008321856316e-16 5.979351278645261152e-16 3.517358117059410184e-17 0.000000000000000000e+00 0.000000000000000000e+00 0.000000000000000000e+00 0.000000000000000000e+00 4.835220352882007118e-16 2.173644139298154100e-16 0.000000000000000000e+00 -3.380353466395021587e-17 -7.258830921448608444e-16 -3.465943008321856316e-16 5.979351278645261152e-16 3.517358117059410184e-17 0.000000000000000000e+00 6.040890372831880355e-17 -1.558864746951962981e-16 0.000000000000000000e+00 1.074279933194812698e-15 -2.064734607831403558e-17 0.000000000000000000e+00 -1.632988326376709049e-15 -6.935963775844886113e-16 -3.465943008321856316e-16 5.979351278645261152e-16 3.517358117059410184e-17 0.000000000000000000e+00 0.000000000000000000e+00 0.000000000000000000e+00 0.000000000000000000e+00 3.394113623467575355e-16 4.143636157010921247e-16 0.000000000000000000e+00 -5.476941070766884438e-16 7.296745901872346509e-17 -3.465943008321856316e-16 5.979351278645261152e-16 3.517358117059410184e-17 0.000000000000000000e+00 0.000000000000000000e+00 0.000000000000000000e+00 0.000000000000000000e+00 3.345726811420245076e-16 3.858156102239064607e-16 0.000000000000000000e+00 -1.388501308170427977e-15 -1.719441632951463412e-15 6.888222567291694791e-03 -9.741621614185696013e-03 -1.006635908218782467e-02 -1.763750181757604840e-02 -9.898575510698920388e-03 2.011409837789814373e-02 6.653042878733014809e-03 3.099369268897780513e-02 5.594283228571927946e-02 3.613995438379902225e-02 6.648114362099702759e-03 -4.374168586924931379e-02 0.000000000000000000e+00 0.000000000000000000e+00 0.000000000000000000e+00 -5.741394379730957605e-16 -1.622000530506125484e-17 0.000000000000000000e+00 -8.529526386375792389e-16 4.824733073944817924e-16 0.000000000000000000e+00 -1.168332796741375822e-15 -1.166535106968840293e-16 -1.766230561462015741e-16 0.000000000000000000e+00 0.000000000000000000e+00 0.000000000000000000e+00 0.000000000000000000e+00 1.460401823761321922e-16 4.720195495670522388e-16 0.000000000000000000e+00 1.440541783178178749e-16 -7.273972324581598549e-16 -1.168332796741375822e-15 -1.166535106968840293e-16 -1.766230561462015741e-16 0.000000000000000000e+00 5.333815154675377671e-17 -1.183013242089976850e-16 0.000000000000000000e+00 2.541110507871079673e-16 -6.442807643849252748e-17 0.000000000000000000e+00 -7.357219717256784093e-17 -2.960852765711233789e-17 -1.168332796741375822e-15 -1.166535106968840293e-16 -1.766230561462015741e-16 0.000000000000000000e+00 0.000000000000000000e+00 0.000000000000000000e+00 0.000000000000000000e+00 4.393570960167811588e-17 3.032871830321331329e-16 0.000000000000000000e+00 4.276298028025251446e-16 3.557694511207470249e-16 -1.168332796741375822e-15 -1.166535106968840293e-16 -1.766230561462015741e-16 0.000000000000000000e+00 0.000000000000000000e+00 0.000000000000000000e+00 0.000000000000000000e+00 -1.830541546762202533e-16 -5.630505608960734586e-16 0.000000000000000000e+00 7.410197307305879557e-16 -2.883419413430128273e-16
3.000011376234178329e+02 -1.415202745131603724e-03 2.040928674200632835e-03 6.755823849943737996e-03 -3.046206656735346314e-03 1.505665392580968036e-02 7.877756941116543718e-03 -1.419900631536420189e-02 -6.222217691467654341e-03 -8.388983639930997979e-03 4.888216552135069351e-03 -1.888652689727876588e-03 4.803316580065210284e-02 1.817561217196252826e-02 -1.152782585588239643e-02 1.826960811074216859e-02 -2.040730224905741314e-03 -4.536815296976922686e-03 -1.979455281344473516e-02 3.407941685964027169e-03 -3.084543146429483042e-03 -1.631854921771219019e-02 -1.859170546844130315e-02 -9.786237291846197964e-03 1.518416288358648107e-02 1.383269755219902362e-03 -1.404966064105305813e-03 3.890425131535353229e-03 1.023472361577076320e-03 -6.262529710613325747e-04 6.295014316750851928e-03 1.907336362425229078e-03 -1.304432887323645450e-03 4.305351283678866435e-04 1.859018772048266288e-03 -2.631116829488956872e-04 -8.162715125149768228e-03 1.527510164793720315e-02 -3.057461162116106856e-02 -7.910476968615486049e-03 3.650588067469884290e-02 -1.285590218370791238e-02 -2.109439106465629821e-02 -1.370022944313101405e-02 3.414650753425081849e-03 1.230618202684706508e-01 3.001572451803695071e-02 8.569946434073612285e-02 -9.655871457398536306e-02 -6.119698593973946221e-03 5.936350294546611367e-02 1.497310855877584911e-03 5.396823934661751365e-02 -3.635321854936333918e-03 0.000000000000000000e+00 0.000000000000000000e+00 0.000000000000000000e+00 2.040377084091391555e-15 4.899601725706934214e-16 0.000000000000000000e+00 1.242336940794815372e-15 1.188783820195213949e-15 0.000000000000000000e+00 -4.163300880971997396e-17 5.233949870238118062e-16 8.993261284328575228e-17 0.000000000000000000e+00 0.000000000000000000e+00 0.000000000000000000e+00 0.000000000000000000e+00 -2.946721588672657953e-17 -4.033303455722129044e-16 0.000000000000000000e+00 -4.696110585272003967e-16 -5.599654717963954662e-17 -4.163300880971997396e-17 5.233949870238118062e-16 8.993261284328575228e-17 0.000000000000000000e+00 -3.765769105931048860e-16 -2.968600329293519936e-16 0.000000000000000000e+00 8.133661833383520055e-16 -1.312240153802188348e-17 0.000000000000000000e+00 -7.597365767823631968e-16 2.119778962358112315e-16 -4.163300880971997396e-17 5.233949870238118062e-16 8.993261284328575228e-17 0.000000000000000000e+00 0.000000000000000000e+00 0.000000000000000000e+00 0.000000000000000000e+00 8.344742500591899624e-16 8.504201689338365557e-17 0.000000000000000000e+00 -1.377211176744946452e-15 9.217290861153804505e-17 -4.163300880971997396e-17 5.233949870238118062e-16 8.993261284328575228e-17 0.000000000000000000e+00 0.000000000000000000e+00 0.000000000000000000e+00 0.000000000000000000e+00 1.961021804458758326e-15 2.391270847936774089e-16 0.000000000000000000e+00 -2.016654173780539793e-16 -6.964348130132155299e-16 -1.776214094707119842e-02 -5.508893559917007327e-02 -4.553663002872367083e-02 -4.927135906780844010e-02 -3.345047493052535296e-03 4.431020253170032258e-02 -3.859757088994078067e-04 -3.566592484432141302e-02 -7.217256862195629841e-02 3.930370471469737254e-02 1.812776603244095966e-02 1.293352219035215078e-01 0.000000000000000000e+00 0.000000000000000000e+00 0.000000000000000000e+00 -1.984555104838999150e-15 -5.614273752453429527e-16 0.000000000000000000e+00 -1.707154651163742687e-15 1.540559254273560048e-16 0.000000000000000000e+00 -2.195035306603427952e-15 -7.453081603149642651e-17 -2.584354308705681095e-16 0.000000000000000000e+00 0.000000000000000000e+00 0.000000000000000000e+00 0.000000000000000000e+00 3.768880885110753268e-16 -3.823932966862622283e-17 0.000000000000000000e+00 -2.488025334890876155e-16 -3.231675544319855171e-16 -2.195035306603427952e-15 -7.453081603149642651e-17 -2.584354308705681095e-16 0.000000000000000000e+00 2.992305424563093666e-16 -3.513143575719406510e-16 0.000000000000000000e+00 3.502805360386941365e-16 -2.122495118903303153e-16 0.000000000000000000e+00 2.451991627805651094e-16 1.431078537380525923e-16 -2.195035306603427952e-15 -7.453081603149642651e-17 -2.584354308705681095e-16 0.000000000000000000e+00 0.000000000000000000e+00 0.000000000000000000e+00 0.000000000000000000e+00 -1.638520016198424344e-17 2.167450451574956128e-16 0.000000000000000000e+00 1.880795983365361970e-16 3.843186626739216876e-16 -2.195035306603427952e-15 -7.453081603149642651e-17 -2.584354308705681095e-16 0.000000000000000000e+00 0.000000000000000000e+00 0.000000000000000000e+00 0.000000000000000000e+00 5.205554197208602088e-17 6.274525720393473367e-17 0.000000000000000000e+00 4.057168518043157343e-16 7.178147806099809140e-18
